<!--?xml version="1.0" standalone="no"?-->
              <svg id="sw-js-blob-svg" viewBox="0 0 100 100" xmlns="http://www.w3.org/2000/svg" version="1.1">
                    <defs> 
                        <linearGradient id="sw-gradient" x1="0" x2="1" y1="1" y2="0">
                            <stop id="stop1" stop-color="rgba(19.891, 56.77, 176.138, 1)" offset="0%"></stop>
                            <stop id="stop2" stop-color="rgba(0, 156.081, 255, 1)" offset="100%"></stop>
                        </linearGradient>
                    </defs>
                <path fill="url(#sw-gradient)" d="M19.5,-27.9C25.3,-22.6,30.2,-17,34.3,-9.8C38.5,-2.6,42,6.1,38.3,10.9C34.6,15.7,23.6,16.6,16.1,18.6C8.5,20.6,4.2,23.7,-1.8,26.2C-7.8,28.6,-15.6,30.5,-22.1,28.1C-28.6,25.7,-33.7,19.2,-35.7,11.9C-37.7,4.6,-36.6,-3.5,-33.4,-10.1C-30.3,-16.8,-25.1,-22.1,-19.2,-27.3C-13.3,-32.5,-6.6,-37.7,0.1,-37.8C6.8,-38,13.7,-33.1,19.5,-27.9Z" width="100%" height="100%" transform="translate(50 50)" stroke-width="0" style="transition: 0.3s;"></path>
              </svg>